<?xml version="1.0" encoding="UTF-8"?>
<svg id="Layer_2" data-name="Layer 2" xmlns="http://www.w3.org/2000/svg" viewBox="0 0 961.94 524.02">
  <defs>
    <style>
      .cls-1 {
        fill: #5c5749;
      }
    </style>
  </defs>
  <g id="Layer_1-2" data-name="Layer 1">
    <path class="cls-1" d="M14.2,243c2.1,7.53-2.79,15.66-1,24h16.5c.48,0,6.56,1.62,8.94,2.06,5.03.94,8.85,4.99,11.56,8.94.16,2.76,1.33,4.1,0,8-1.8,5.28-11.41,11.12-16.44,13.06-7.15,2.75-16.65,2.32-22.56,6.94-.65-.06-1.36.09-2,0-2.23-.32-4.73.08-7-1,.55-2.78-1.69-1.75-1.92-2.05-1.44-1.86,3.13-2.93,3.82-4.76,2.83-7.62,2.19-33.06,1.14-41.71-.47-3.85-3.45-7.32-1.89-11.84,1.11-3.2,8.37-2.27,10.86-1.63ZM14.34,275.14c-1.33,17.94-6.18,28.15,16.55,20.05,27.1-9.65.07-27.4-16.55-20.05Z"/>
    <path class="cls-1" d="M748.42,286.78c1.08,1.57,10.98,4.84,13.39,5.12,5.4.62,15.47-1.84,18.74-.74,4.06,1.36,1.13,8.16-4.83,8.87-6.46.77-27.82-2.25-32.57-6.47-8.49-7.54-4.56-20.51,3.13-26.96s29.43-11.12,35.33-.5c1.53,2.76,3.09,9.71-.41,11.42-5.6,2.74-24.93-1.55-32.29.7-3.52-.03-1.35,7.32-.49,8.57ZM774.2,272c-1.42-10.21-15.64-7.08-21.74-2.29-.82.64-1.82-.03-1.26,2.29h23Z"/>
    <path class="cls-1" d="M129.75,297.58c-7.22,7.03-23.18,8.36-32.92,7.29-13.97-1.52-22.61-10.88-16.03-24.78,5.91-12.47,34.52-14.29,45.92-10.12,14.58,5.33,12.77,18.11,3.03,27.6ZM108.95,272.22c-2.54.42-10.55,2.93-12.98,4.06-10.82,5.01-10.73,17.86.98,21.49,9.65,2.99,23.14,1.65,29.26-7.25,7.7-11.21-7.84-19.84-17.25-18.29Z"/>
    <path class="cls-1" d="M926.2,278c-3.12,18.02,22.71,14.08,34,13,.53,5.72-.6,8.5-6.44,9.07-6.78.66-24.61-1.33-30.5-4.62-.39-.22-5.83-5.83-6.04-6.22-6.33-11.99,8.45-26.85,20.58-28.15,1.51-.16,2.84.97,3.84.98.55,0,.54-3.69,2.53-2.02.13.11-.16,3.73,1.99,1.92.97-.82-1.25-2.96,5.09-1.5,10.88,2.51,13.6,17.55,7.44,17.55h-32.5ZM929.2,273h21.5c2.89,0,1.83-7.33-8.02-7.07-4.19.11-12.34,2.44-13.48,7.07Z"/>
    <path class="cls-1" d="M176.2,262c.69-3.2.82-6.47,1.97-9.52,1.82-1.83,7.46-1.97,9.45-.58s-4.29,13.77-2.95,16.15c2.02,3.59,15.29-.19,19.52,2.96-.83,1.1-1.69,4.8-2.66,5.04-2.67.66-15.63-2.62-17.28-1-4.35,17.39,1.68,22.55,17.94,25.44-6.91,13.01-26.69,1.99-27.93-10.1-.45-4.36,2.12-9.74.79-13.75-.69-2.1-2.39-1.37-3.86-1.64-.92-.16-2.11.18-3,0-1.79-.36-9.87-2.13-7-4.99,1.4-1.4,11.49,3.67,15-7.01.09-.28-.07-.67,0-1Z"/>
    <path class="cls-1" d="M830.17,297.96c-7.51,2.52-15.3,3.29-12.95-7.3,2.5-11.24,2.32-26.43,1.98-39.16-.14-5.36-5.43-17.79,3.54-19.49,11.11-2.11,5.93,6.32,5.41,11.43-1.11,10.83-.96,34.11.05,45.06.31,3.32,2.42,6.04,1.97,9.45Z"/>
    <path class="cls-1" d="M882.04,297.85c-.75,1.21-6.46,2.24-8.25,2.1-7.85-.62-2.85-8.73-2.55-13.41.8-12.25.1-27.5,0-40.09-.03-3.03-1.46-5.54-1-8.87,1.07-7.8,12.42-7.06,12.78-.93.09,1.45-1.81,2.95-2.16,4.51-1.49,6.62-1.6,39.88-.69,47.36.33,2.73,3.24,7.08,1.87,9.32Z"/>
    <path class="cls-1" d="M321.2,486c-2.07,3.56.74,4.88-7,4-.88-7.78,2.2-5.32,7-4Z"/>
    <path class="cls-1" d="M701.46,268.25c-3.25,3.06.05,13.54.64,17.35.39,2.51-.19,5.07.33,7.67.8,4.02,6.16,11.82-2.29,14.21-10.93,3.1-5.24-11.85-5.95-12.48-8.87,2.64-30.71,6.92-35.24-4.27-5-12.35,4.31-22.23,15.23-26.26,2.76-1.02,14.4-2.69,15.56-4.44,3.9-5.9-5.6-17.1-.87-20.12,2.02-1.29,10.36-1.92,11.23.72,1.08,3.28-3.29,9.72-.62,17.58,1.63,4.82,5.47,3.31,5.79,6.27.76,3.74-2.8,2.81-3.81,3.76ZM672.7,291c3.92.78,12.41,0,17,0s1.47-16.77,2.32-20.29c-8.11-9.62-33.56,5.44-24.68,16.65.83,1.05,4.32,3.43,5.36,3.63Z"/>
    <path class="cls-1" d="M238.2,275c-.87-.87-14.07,2.02-14.98-3.5.16-2.21,11.11-2.01,13.55-3.43,6.71-3.91-.6-16.2,8.9-17.15,11.44-1.14-.25,11.52,2.59,18.02,4.35,2.04,16.87-2.44,17.01,4.57.04,2.19-2.95,2.43-4.59,2.52-4.08.22-13.57-3.53-14.48,1.47-2.55,13.86,2.64,21.63,17.01,21.51.51,15.88-25.01,3.79-25.01-5.5v-18.5Z"/>
    <g>
      <path class="cls-1" d="M435.81,307.65c-5.99,8.52-22.04,18.21-32.36,20.1-61.17,11.2-94.67-61.97-43.99-96.77,49.94-34.3,112.7,25.03,76.35,76.67ZM437.85,274.77c0-26.07-21.13-47.2-47.2-47.2s-47.2,21.13-47.2,47.2,21.13,47.2,47.2,47.2,47.2-21.13,47.2-47.2Z"/>
      <path class="cls-1" d="M523.21,262c9.45-3.38,31.35-4,33.79,8.75,2.01,10.52-11.36,19.07-19.58,22.96-7.73,3.66-16.24,2.07-16.29,11.79-.03,6.11,5.23,12.09-2.47,13.44-11.63,2.04-6-4.19-5.42-9.41.63-5.71-2.02-13.55-1.82-15.86.19-2.15,2.35-6.88,2.66-10.3.21-2.38.84-9.72-.84-10.9-1.45-1.02-5.07.15-5.07-2.98,0-3.47,4.73-3.22,5.02-3.53,1.11-1.18-5.58-9.58,5.57-10,4.86-.18,4.69,1.61,4.46,6.04ZM546.67,270.55c-2.57-3.1-7.21-5.03-11.26-5.34-1.77-.14-11.06,1.25-11.97,2.03-2.49,2.15-1.2,6.71-1.37,9.14-.25,3.63-2.78,13.57,2.61,14.63,9.02,1.79,25.79-8.88,23.5-19.29-.16-.73-1.18-.77-1.52-1.17Z"/>
      <path class="cls-1" d="M618.85,262.35c1.13,1.29,5.16,11.72,5.35,13.24.33,2.62-.61,20.39-1,23.93-1.22,11.26-19.54,6.7-9-4.51-9.55,3.49-32.72,7.54-28.97-9.31.54-2.41,11.96-8.49,14.77-9.41s14.28-1.45,14.25-4.8c-.04-4.09-9.84-6.8-13-7.05-4.09-.33-14.42,5.13-13.98-1.98.33-5.48,19.28-5,23.46-4.49,2.57.31,6.45,2.45,8.13,4.37ZM614.06,280.13c-3.35-2.09-18.26,2.44-20.37,5.87-4.49,7.28,15.46,9.31,20.31.28.75-1.39,1.38-5.33.06-6.15Z"/>
      <path class="cls-1" d="M297.79,272.35c-.18-.36-1.34-.35-1.41-.49-1.4-3.09,10.2-8.72,11.68-4.21.62,8.95-1.85,17.88-.86,26.86.56,5.08,5.93,9.75-.72,11.27-13.68,3.13-7.9-4.41-7.38-11.46.31-4.2.24-18.92-1.32-21.98Z"/>
      <path class="cls-1" d="M706.2,206c0,.66.03,1.34,0,2-.05,1.16,1.44,2.54.53,4.01-3.24,5.21-7.65-7.05-8.53-9.01.06-.65-.12-1.43,0-2,.17-.76.3-6.07,2.49-4.99,2.62,1.29,3.68,7.83,5.51,9.99Z"/>
      <path class="cls-1" d="M311.05,261.86c-2.08,1.32-11.57.61-10.69-4.21.67-3.68,10.78-3.94,11.7.07.21.9-.49,3.81-1.01,4.15Z"/>
      <path class="cls-1" d="M251.2,214c.57.55-.89,7.72-1.32,9.19-1.5,5.11-3.78,3.05-3.27-1.21.13-1.05,1.31-7.71,1.61-7.98.11-.1,2.88-.1,2.99,0Z"/>
      <g>
        <path class="cls-1" d="M246.2,33c6.39-7.19,22.19-27.33,30.11-30.39,27.28-10.56,47.07,13.29,66.42,29.42,1.33,1.11,1.48,3.68,3.97,3.61,17.88-10.02,36.78-18.85,57.12-22.53,40.93-7.4,86.29-5.79,126.61,3.17,12.57,2.79,46.43,18.05,58.3,24.7,47.7,26.71,93.27,76.58,111.25,128.75,4.25,12.32,6.42,16.11-9.13,18.36l-26.68-47.54c-58.24-81.83-152.07-119.26-249.96-92.54-21.08,5.75-44.08,9.41-64.51,20.99-1.66.94-5.7,2.69-5.49,5.01-2.03-.01-18.08,11.76-21,14-10.88,8.35-19.89,17.23-29,27-2.47,2.65-7.59,6.48-10.02,9.47-2.17,2.67-3.17,5.28-2.77,8.74.72,6.16,4.04,5.57,1.78,13.79-3.76,13.72-15.08,7.17-21.44,14.06-4.07,4.42-13.1,23.02-15.74,29.26s-7.87,28.8-13.52,30.47-12.56-.58-13.35-7.26,4.37-16.78,4.99-24.17c.12-1.5.38-2.95-.45-4.34-9.8-8.79-19.04-18.26-28.55-27.29-6.87-6.52-11.43-7.32-14.98-18.2-7.4-22.71,5.37-33.95,18.06-50.02,15.15-19.18,31.58-38.08,47.98-56.52ZM317.2,82c18.12-12.21,37.06-26.3,58.96-31.57,4.15-1,2.51-.7,5.27-1.73,107.51-39.84,220.36-7.93,286.59,84.97,9.54,13.38,16.23,30.89,26.16,44.33-.08-4.93-2.58-9.53-4.5-13.99-26.79-62.14-71.59-104.39-133.8-130.2-56.09-23.28-152.24-27.42-204.47,7.94-2.07,1.4-2.57,4.29-5.57,4.07l-39.19-33.75c-26.59-17.14-44.59,15.71-59.95,32.96-18.43,20.68-40.5,44.25-55.95,67.05-18.65,27.54,18.73,47.07,35.08,64.28,2.21,2.33,4.09,5.59,6.88,7.68l-6.32,26.78c-.78,2.65,2.58,4.98,4.03,1.93,3.42-7.2,5.26-17.58,8.56-25.44,2.94-7.02,10.32-22.62,14.55-28.45,6.06-8.34,11.59-5.58,18.67-9.33,9.33-4.94-1.64-16.89,3.02-25.73,7.1-7.7,14.04-15.39,21.54-22.77,1.12-1.1,1.3-2.92,1.43-3.02.25-.18,1.89.38,2.64-.32l11.36-11.68c2.56-.19,3.91-3.27,5-4Z"/>
        <path class="cls-1" d="M446.2,85c.67-.01,1.33,0,2,0,19.62-.25,39.37-.28,58.98.57l2.93,3.25c11.49,30.88,43.18,72.11,16.6,103.2-13.04,15.25-33.2,19.3-51.57,24.6,0,21.31.19,42.62.11,63.93-.07,18.11-4.05,31.48,8.93,46.99,2.64,3.15,8.97,7.33,10.61,9.52.91,1.22-.58,1.83-.59,1.96-4.4.82-9.52-.81-13.5-.8-1.56,0-3.2.84-4.96.84-4.07.02-30.34-1.07-31.54-.04-.39-.19-.81-.97-1-1v-1c9.56-5.53,19.42-17.47,20.89-28.61,2.87-21.85.12-51.46.07-73.85,0-3.53,1.95-17.5-1.18-18.87-2.62-1.15-7.01-1.08-9.99-1.96-22.6-6.65-44.95-16.02-49.79-41.71-4.69-24.91,13.88-56.28,24-79,.91-2.04,1.43-1.76,2-5,7.91-4.42,8.31-2.85,17-3ZM466.2,89c-6.13.03-12.05,1.15-18.55,1.05-5.15-.08-11.51-3.49-15.05,1.31-12.33,32.84-46.05,79.07-6.86,106.63,9.83,6.91,37.87,15.08,49.71,13.74,4.13-.47,13.31-3.08,17.57-4.42,33.69-10.58,47.74-34.38,34.22-68.86l-22.04-48.46c-1.14-1.54-3.25-1.02-5-1-2.28.03-3.86.43-6,1-.71-2.29-2.7-.03-3,0-7.51.75-16.04-1.08-24-1-.33,0-.67,0-1,0Z"/>
        <path class="cls-1" d="M531.2,62c-1.26-5.95-9.57-3.56-14.22-4.28-5.63-.87-9.52-3-14.57-4.43-1.2-.34-12.62-1.56-11.21-3.28s11.03.9,13.55,1.02c8.35.41,5.4-.58,14,1.92,4.56,1.32,18.68,3.34,21.42,5.58,5.2,4.25-4.05,3.55-6.97,3.47-.67-.02-1.33.01-2,0Z"/>
        <path class="cls-1" d="M372.2,69l6.32-5.18c14.94-4.74,29.57-12.66,45.68-11.81,2.19,1.9-6.02,4.34-6.95,4.54-3.73.83-7.19.66-11.26,1.74-11.33,3.01-21.98,9.26-33.79,10.71Z"/>
        <path class="cls-1" d="M578.84,74.38c2.42,1.51,12.69,9.1,13.98,10.97.79,1.15,1.68,2.08,1.38,3.64-9-3.65-24.79-5.41-23.99-17.99.92-.99,7.39,2.6,8.63,3.37Z"/>
        <path class="cls-1" d="M609.78,97.42c1.57,1.23,11.34,9.73,9.42,11.57-2.12,2.03-7.56-4.68-9.64-5.85-1.76-.99-3.76-.88-5.28-1.72-2.74-1.5-5.65-6.24-6.07-9.42,4.65-.46,8.21,2.79,11.57,5.42Z"/>
        <path class="cls-1" d="M664.07,161.14c.65.46,6.49,12.5,7.16,14.33s3.61,11.83,2.96,12.53c-9.79-1.44-6.64-12.11-8.23-18.26-.15-.59-9.12-13.73-1.89-8.6Z"/>
        <path class="cls-1" d="M626.91,114.31c1.16.95,10.95,11.53,11.75,12.74,1.25,1.89,2.28,4.67,2.54,6.95-2.48,2.58-13.57-14.38-15.08-16.18-.6-.71-6.02-4.66-3.41-4.83,1.54,0,2.98.33,4.2,1.32Z"/>
        <path class="cls-1" d="M648,137.23c1.87,1.02,11.61,18.38,10.2,19.77-1.01,1-2.94-.41-3.86-1.63-3.72-4.91-5.92-12.96-10.13-17.87.41-.97,3.07-.66,3.79-.27Z"/>
        <path class="cls-1" d="M567.2,69.02c3.51,3.59-8.96.77-10,.49-3.25-.89-6.79-1.04-6.97-4.93.88-1.47,1.73-1.75,3.4-1.58.74.07,13.04,5.49,13.56,6.02Z"/>
        <path class="cls-1" d="M679.2,203c-.04-2.35-.67-3.49,1.99-3-.38,2.6,2.58,5.57,3.01,7s.95,4.48,1,6h-2c-2.09-3.21-3.62-9.61-4-10Z"/>
        <path class="cls-1" d="M447.2,48c-.05.25,2.23,2.76-1.72,3.86-3.11.87-3.58-.96-5.28-1.86,1-2.87,4.49-1.95,7-2Z"/>
        <path class="cls-1" d="M306.59,114.42c-.34.3-.88,3.38-2.39,1.57s4.54-6.86,6.51-6.97c-.06,2.33-2.57,4.04-4.12,5.4Z"/>
        <path class="cls-1" d="M261.2,186.01c1.39,1.42-3.07,9.59-4.07,11.42-.73,1.33-.43,3.05-2.91,2.57-.88-2.14,3.75-17.31,6.99-13.99Z"/>
        <path class="cls-1" d="M305.89,46.31c1.77,1.19,6.32,7.14,8.43,9.07,1.39,1.27,10.46,6.3,8.88,8.6-8.47,4.87-19.55,10.05-25.54,17.98-2.92,3.87-4.54,9.91-7.46,13.54-2.47,3.06-4.87,3.02-7.04,4.96-8.52,7.63-8.73,12.99-14.13,21.87s-13.13,16.82-18.65,25.35c-1.76,2.73-3.4,10.2-6.63,9.34-4.08-5.44-10.68-9-15.43-13.63-6.42-6.27-9.88-13.71-9.16-22.93,1.1-14,13.67-23.86,22-33.94s30.44-39.37,41.04-43.01c6.65-2.28,17.84-1.13,23.69,2.81ZM302.77,54.43c-8.57-6.24-16.53-5.89-25.06.58-14.68,18.97-35.23,37.81-48.76,57.21-4.79,6.88-3.77,15.83,1.25,22.28,2.88,3.69,7.26,5.53,9.72,9.54l2.64.79c3.49-4.77,7.98-9.62,11.61-14.59,6.38-8.74,11.77-22,17.62-29.16,3.68-4.51,10.33-7.46,13.42-11.58,3.47-4.61,5.52-12.61,10.27-17.23l14.26-9.25c.56-.8.78-2.1.31-2.91-.23-.4-6.2-4.91-7.28-5.7Z"/>
        <path class="cls-1" d="M426.2,151c1.29,5.94,12.29,6.82,17.45,7.05,29.04,1.28,27.63-15.53,47.34-23.75,7.44-3.1,15.97-3.92,23.95-4.64.68.14.96.51,1.27,1.09,1.71,3.3,7.18,19.1,7.93,22.82,5.99,29.64-19.18,43.2-43.55,49.33-19.18,4.82-51.29-6.76-61.78-24.01-6.46-10.63-4.26-20.35-2.62-31.88.7-.08,1.83-.86,3-1,.31-.04.69-.03,1,0-.29,2.74.1,1.79,2,2,.14.42-.31,1.27.14,1.83.53.66,2.88.82,3.86,1.17Z"/>
      </g>
      <path class="cls-1" d="M434.08,274.71c0,24.01-19.46,43.47-43.47,43.47s-43.47-19.46-43.47-43.47,19.46-43.47,43.47-43.47,43.47,19.46,43.47,43.47ZM397.59,272.4c.76-.8,2.2-1.17,2.67-1.81,1.52-2.09,1.61-19.7-.04-21.1-2.97-2.53-25.83-1.82-30.21-.39-4.08,1.33-1.61,4.69-1.75,6.44-.63,7.9-3.34,16.4,7.95,16.47.1,5.21-7.52,6.23-8.8,11.7-.81,3.44-1.74,15.08,1.18,17.4,3.74,2.96,12.8.73,17.12.81,6.07.11,20.45,2.5,24.73-.89,2.81-2.23,2.44-5.49,8.76-4.03.97-3.61-3.46-4.8-4.47-7.03-.75-1.65-.23-4.67-1.46-5.54-1.15-.82-10.26-.38-14.13-1.91-.67-.27-4.22-3.23-4.38-3.53-1.87-3.38.59-4.27,2.82-6.59Z"/>
      <path class="cls-1" d="M396.2,252v15.5c0,.39-3.76,6.02-4.66,6.33-2.35.81-12.1-.74-14.05-2.13-4.55-3.24-3.79-15.77-2.29-20.71h17.5c.54,0,2.22,1.55,3.5,1Z"/>
      <path class="cls-1" d="M391.89,280.33c.3.16,2.48,2.96,4.34,3.36l-.02,15.32-20.07-.44c-.63-.44-2.06-13.11-2.04-15.08.05-3.93,2.78-7.09,6.59-7.59,3.07,1.93,8.5,3.03,11.19,4.43Z"/>
    </g>
    <path class="cls-1" d="M519.2,339c6.22-1.85,5.76-9.75,17.49-11.01,26.39-2.83,62.64,2.86,89.97,4.05,13.28.58,26.62-.13,39.9,1.1,2.09.68,1.69,2.99,1.64,4.85h-86.01s-.05,3.44-.05,3.44l86.06,2.57v2.99c-28.69.08-57.51-.4-86.01,1.01.14.71-.2,4,0,4h25.5c6.86,0,13.68.89,20.5,1,.67.01,1.33-.01,2,0,2,.03,4-.03,6,0,.67.01,1.33,0,2,0,2.33.03,4.67,0,7,0,.67,0,1.33,0,2,0,2.99,0,6.01.01,9,0,.67,0,1.33,0,2,0,3.29-.01,6.67-.15,10,0-.06.66.04,1.34,0,2-.13.08.49,2.42-1.42,2.09l-82.08.91-2.51,3.49,86.01,1.51v3.99c-20.84,1.15-41.7,1.2-62.55,1.96-22.84.84-45.76,1.16-68.46,2.04-1.66.06-3.34-.07-5,0-8.26-1.6-9.51-9.91-16.1-13.4-9.38-4.96-20.42-2.58-30.37-2.84-18.68-.49-44.62-3.12-62.24,3.03-16.11,5.62-12.86,8.48-32.78,9.12-30.28.97-104.35,3.88-127.74-14.88-1.28-1.02-1.75-3.03-3.26-4-2.21,1.34-.72,3.24.02,4.96,16.37,37.68,34.85,62.48,63.86,90.63,6.28,6.09,12.33,9.46,18.22,16.34.9,1.05,4.01,1.05,1.89,3.06-8.06.96-8.05-6.64-11.53-9.47-5.29-4.3-16.37-8.84-22.22-13.51-11.92-9.53-33.69-37.48-41.27-51.01s-13.04-28.37-18.44-42.54c1.92-3.15,4.47-.42,6.38-.48.56-.02.53-1.68,1.35-1.94,11.7-3.72,27.61-1.08,39.7-1.03,37.86.16,75.68-.06,113.54-.04,4.19,0,8.24,1.13,13,1,.67-.02,1.34.03,2,0,17.54,3.99,35.6,1.38,53.33,1.38,12.19,0,20.12,3.17,33.2-1.35,2.82-.97,5.87-1.72,6.47-5.03Z"/>
    <path class="cls-1" d="M667.82,421.63c-32.34,44.25-91.55,85.46-146.22,96.26-9.4,1.86-18.56,1.79-27.8,3.2-3.36.51-6.87,2.9-10.08,2.91-15.84.05-37.92-2.69-53.89-5.14-7.24-1.11-12.6-3.99-19.63-4.88-2.46-2.04,4.54-2.63,5.33-2.61,12.91.27,28.44,4.15,42.13,4.66,50.48,1.86,115.45-18.62,154.89-50.24,6.75-5.41,12.77-12.03,19.69-17.23,2.66-2.6-1.04-3.87-1.04-6.57,2.94.1,5.54,1.98,8.27-.03l25.14-31.06c14.76-19.9,23.19-43.75,32.3-66.7.58-1.46.06-3.44.81-5.19,1.56-3.65,9.26-4.65,9.51-.53.19,3.1-2.66,15.84-3.99,19.05s-3.97,5.13-5.23,7.77c-2.58,5.35-3.7,11.7-6.07,16.93-5.74,12.64-15.87,28.12-24.12,39.4Z"/>
    <path class="cls-1" d="M231.2,339c.33,0,.67-.01,1,0,2.18,1.59,3.59,5.54,4.49,8.01,17.23,47.22,32.97,76.71,70.99,110.04,14.09,12.35,29.24,23.01,45.43,32.54,2.09,5.54-10.41,1.82-10.82,1.3-.53-.69.36-3.06-.2-3.77-.25-.31-2.53-.35-3.57-.91-10.66-5.8-36.3-22.8-44.32-31.21-15.37-16.12-31.6-37.84-43.19-57.31-1.65-2.78-2.36-8.64-5.81-8.69h-1c-.92-10.66-7.76-21.39-12-30-.26-.53.27-2.87-.24-4.22-1.3-3.44-5.57-11.66-4.29-14.72.25-.61,1.35-.78,1.53-1.06.67,0,1.33.01,2,0Z"/>
    <path class="cls-1" d="M611.2,444c.58-.14,1.5.24,2.29-.02.42-.14,6.38-7.07,6.7-2.5-9.05,7.89-16.95,17.29-26.66,24.35-21.47,15.62-45.15,25.95-71.07,31.93-20.57,4.74-35.23,6.63-56.8,6.28-8.09-.13-17.88.43-25.46-2.59-1.61-.64-2.44.1-2-2.45,6.83-.17,13.7.19,20.54.04,14.01-.31,26.4-.34,40.07-2.93,9.15-1.74,44.49-7.02,49.39-13.11.15-.19-.13-.69,0-1,.66-.02,1.34.03,2,0,9.39-.49,50.96-26.41,58.53-33.94,1.2-1.2,2.43-2.17,2.47-4.06Z"/>
    <path class="cls-1" d="M675.2,350c4.38-.13,3.13-8.24,7.99-7.99-.81,7.91-17.49,47.89-22.68,49.81-.74.27-3.35.63-3.33-.33,4.75-11.13,15.88-24.78,18.01-36.49.15-.82.02-2.07,0-3,0-.33.04-.68,0-1s.07-.7,0-1Z"/>
    <path class="cls-1" d="M656.2,399.01c2.13,2.23-14.2,21.45-16.7,23.75-1.1,1.02-.64,1.8-3.29,1.24-.56-6.86,4.38-8.52,7.39-12.1,1.25-1.49,10.55-15.04,12.6-12.89Z"/>
    <path class="cls-1" d="M377.12,480.1c.21.26.18,2.8.08,2.9-.95.99-16.33-3.14-16.99-6.98,1.89-.43,3.14-1.07,5.22-.84,1.23.14,11.29,4.43,11.69,4.92Z"/>
    <path class="cls-1" d="M411.2,494c-.88.89-5.52-1.13-6.8-1.73-.6-.28-4-.35-2.19-2.25,2.16-2.26,11.94,1.02,8.99,3.98Z"/>
    <path class="cls-1" d="M636.2,425.01c.68.35-.59,1.7-1.99.98-.68-.35.59-1.7,1.99-.98Z"/>
  </g>
  <g id="Layer_2-2" data-name="Layer 2">
    <g>
      <path class="cls-1" d="M339.03,386.54c-1.59,3.97-2.98,7.63-4.16,10.96s-1.87,5.32-2.07,5.97h-4.73c-.11-.38-.48-1.54-1.13-3.51s-1.5-4.45-2.54-7.46h-.09c-.93,2.58-1.78,4.95-2.55,7.1s-1.23,3.45-1.37,3.87h-4.73c-.21-.71-.86-2.63-1.95-5.75s-2.47-6.83-4.13-11.13l5.35-1.48,3.7,11.83h.09l3.81-11.18h3.76l3.62,11.18h.09l3.73-11.78,5.28,1.37Z"/>
      <path class="cls-1" d="M347.5,382.73h-5.57v-4.15h5.57v4.15ZM347.41,403.47h-5.4c0-.56,0-1.76.03-3.59s.03-3.54.03-5.13c0-1.35,0-2.76,0-4.24s-.02-3.14-.04-4.99h5.4c-.01,1.68-.03,3.17-.04,4.49s-.03,2.82-.03,4.49c0,2.67.01,4.7.04,6.09s.04,2.35.04,2.87Z"/>
      <path class="cls-1" d="M370.02,403.47h-5.4c0-.36,0-1.26.03-2.68s.03-2.55.03-3.38c0-.59,0-1.42,0-2.49s-.01-1.88-.03-2.43c-.02-1.08-.21-1.86-.55-2.35s-.96-.73-1.84-.73c-.59,0-1.27.15-2.07.45s-1.54.65-2.24,1.06c0,.07,0,.73,0,1.97s0,2.29,0,3.13c0,1.27.01,2.78.04,4.55s.04,2.74.04,2.9h-5.4c0-.27,0-1.09.03-2.46s.03-3.37.03-5.99c0-1.51,0-3.05-.02-4.61s-.02-3.19-.04-4.88h5.29l-.02,1.67.02.04c1.11-.62,2.29-1.14,3.53-1.55s2.34-.62,3.29-.62c1.62,0,2.9.5,3.86,1.5s1.43,2.35,1.43,4.05c0,1.42,0,2.6-.03,3.54s-.03,1.74-.03,2.38c0,1.09.01,2.43.04,4.02s.04,2.56.04,2.91Z"/>
      <path class="cls-1" d="M391.06,394.49h-12.2c.01.9.27,1.74.76,2.5s1.26,1.39,2.28,1.87c.71.32,1.47.54,2.26.68s1.66.2,2.61.2c.75,0,1.4-.01,1.95-.04s.96-.04,1.21-.05l-.54,3.85c-.25.02-.66.05-1.24.08s-1.25.04-2,.04c-2.04,0-3.85-.23-5.44-.68s-2.94-1.13-4.05-2.05c-.94-.77-1.69-1.73-2.27-2.87s-.86-2.39-.86-3.76.21-2.57.63-3.64,1.11-2.09,2.06-3.06c.79-.81,1.76-1.43,2.92-1.86s2.34-.65,3.53-.65c1.27,0,2.4.18,3.39.54s1.85.89,2.57,1.61c.84.84,1.46,1.86,1.85,3.05s.58,2.6.58,4.23ZM386.01,392.13c-.11-1.15-.46-2.06-1.06-2.74s-1.43-1.02-2.49-1.02-1.88.34-2.55,1.01-1.1,1.59-1.3,2.75h7.4Z"/>
      <path class="cls-1" d="M412.19,394.24c0,1.86-.46,3.47-1.39,4.83s-2.21,2.41-3.87,3.15c-1.17.52-2.52.88-4.05,1.11s-3.4.33-5.6.33c-.62,0-1.13,0-1.52,0s-.78,0-1.15,0c0-.82,0-2.35.03-4.6s.03-5.24.03-8.97c0-2.72,0-5.07-.02-7.06s-.02-3.76-.04-5.32h5.4l-.05,7.89c1.85.05,3.4.23,4.63.54s2.34.74,3.31,1.29c1.39.71,2.46,1.66,3.19,2.85s1.1,2.51,1.1,3.97ZM406.77,394.17c0-1.02-.27-1.9-.82-2.63s-1.26-1.28-2.15-1.64c-.53-.23-1.09-.4-1.68-.49s-1.2-.14-1.82-.14h-.56c0,.21,0,.92,0,2.12s0,2.21,0,3.01c0,1.32,0,2.33,0,3.01s0,1.42,0,2.19c.89,0,1.73-.07,2.52-.22s1.46-.37,2-.68c.84-.47,1.47-1.07,1.89-1.79s.62-1.64.62-2.74Z"/>
      <path class="cls-1" d="M430.85,394.13c0,2.87,0,5.08,0,6.64,0,1.56,0,2.46,0,2.7-.19.02-.95.08-2.29.17s-2.75.13-4.25.13c-.98,0-2.11-.08-3.37-.25s-2.31-.43-3.16-.79c-1.08-.47-1.92-1.09-2.53-1.85s-.91-1.67-.91-2.7c0-1.12.33-2.09.98-2.88s1.67-1.45,3.05-1.97c.93-.35,2.07-.63,3.43-.83s2.59-.34,3.69-.42c-.04-.63-.2-1.15-.5-1.56s-.81-.72-1.52-.94c-.47-.15-.99-.26-1.56-.33s-1.25-.1-2.03-.1c-.71,0-1.32.01-1.83.04s-1.05.05-1.63.07l.47-3.92c.23-.01.61-.03,1.12-.04s1.24-.03,2.18-.03c1.98,0,3.63.17,4.95.51,1.32.34,2.43.9,3.33,1.69.83.71,1.44,1.58,1.82,2.61.38,1.03.57,2.37.57,4.05ZM425.76,397.37v-1.31c0-.5,0-1.02-.02-1.57-.34.01-.94.08-1.81.2s-1.64.33-2.32.62c-.47.19-.9.48-1.29.88s-.59.89-.59,1.48c0,.66.17,1.18.52,1.56s.79.69,1.34.9c.4.14.85.25,1.35.32s1.05.11,1.63.11c.15,0,.33,0,.53,0s.41,0,.63,0c0-.15,0-.51,0-1.07s0-1.26,0-2.09Z"/>
      <path class="cls-1" d="M448.91,389.53c-.96.29-2.04.66-3.23,1.11s-2.75,1.1-4.66,1.97c0,.29,0,.83,0,1.6s0,1.56,0,2.36c0,1.24.01,2.63.04,4.17s.04,2.45.04,2.74h-5.4c0-.35,0-1.23.03-2.64s.03-3.29.03-5.64c0-1.12,0-2.54-.02-4.25s-.02-3.52-.04-5.41h5.27l-.02,2.58.04.02c1.11-.69,2.31-1.34,3.59-1.94s2.27-1.01,2.99-1.22l1.37,4.57Z"/>
      <path class="cls-1" d="M477.37,395.49h-11.51v-4.73h11.51v4.73Z"/>
      <path class="cls-1" d="M514.97,394.24c0,1.86-.46,3.47-1.39,4.83s-2.21,2.41-3.87,3.15c-1.17.52-2.52.88-4.05,1.11s-3.4.33-5.6.33c-.62,0-1.13,0-1.52,0s-.78,0-1.15,0c0-.82,0-2.35.03-4.6s.03-5.24.03-8.97c0-2.72,0-5.07-.02-7.06s-.02-3.76-.04-5.32h5.4l-.05,7.89c1.85.05,3.4.23,4.63.54s2.34.74,3.31,1.29c1.39.71,2.46,1.66,3.19,2.85s1.1,2.51,1.1,3.97ZM509.55,394.17c0-1.02-.27-1.9-.82-2.63s-1.26-1.28-2.15-1.64c-.53-.23-1.09-.4-1.68-.49s-1.2-.14-1.82-.14h-.56c0,.21,0,.92,0,2.12s0,2.21,0,3.01c0,1.32,0,2.33,0,3.01s0,1.42,0,2.19c.89,0,1.73-.07,2.52-.22s1.46-.37,2-.68c.84-.47,1.47-1.07,1.89-1.79s.62-1.64.62-2.74Z"/>
      <path class="cls-1" d="M524.21,382.73h-5.57v-4.15h5.57v4.15ZM524.12,403.47h-5.4c0-.56,0-1.76.03-3.59s.03-3.54.03-5.13c0-1.35,0-2.76,0-4.24s-.02-3.14-.04-4.99h5.4c-.01,1.68-.03,3.17-.04,4.49s-.03,2.82-.03,4.49c0,2.67.01,4.7.04,6.09s.04,2.35.04,2.87Z"/>
      <path class="cls-1" d="M541.81,398.06c0,.96-.27,1.8-.8,2.51s-1.21,1.29-2.03,1.74c-.86.47-1.91.81-3.16,1.04s-2.52.33-3.8.33c-.86.01-1.63,0-2.31-.04s-1.15-.05-1.4-.05l-.42-3.87c.27.01.71.03,1.34.06s1.3.04,2.04.04c.39,0,.83-.02,1.32-.06s.96-.13,1.39-.25c.64-.18,1.07-.4,1.27-.66s.31-.57.31-.92c0-.33-.11-.6-.34-.83s-.59-.47-1.08-.74c-.4-.23-.91-.49-1.55-.77s-1.2-.57-1.71-.88c-.81-.49-1.41-1.08-1.8-1.75s-.59-1.42-.59-2.24c0-.89.25-1.7.76-2.42s1.27-1.33,2.3-1.84c.84-.41,1.84-.7,2.98-.86s2.22-.26,3.23-.28c.84-.01,1.55,0,2.11,0s.94.03,1.12.03l.46,3.88c-.18,0-.51-.01-.99-.04s-1.09-.04-1.82-.04c-.5,0-.98.03-1.42.1s-.84.16-1.2.27c-.45.15-.78.35-.99.59s-.33.5-.33.78c0,.34.14.63.41.88s.64.48,1.08.7c.43.23.98.5,1.63.81s1.16.57,1.54.79c.81.49,1.42,1.06,1.84,1.7s.62,1.4.62,2.28Z"/>
      <path class="cls-1" d="M557.68,399.74l-.51,3.85c-.16.01-.44.02-.83.04s-.89.02-1.51.02c-2.85,0-5-.54-6.44-1.63s-2.17-2.7-2.17-4.84c0-1.37,0-2.64.02-3.81s.02-2.5.02-4.02h-2.92v-3.83h3.06v-4.69h5.19v4.69h6.03v3.83h-6.03c0,.26,0,.77-.02,1.54s-.02,1.4-.02,1.89c0,.39,0,.86,0,1.42s0,1.14,0,1.75c0,1.28.36,2.23,1.07,2.86s2.03.94,3.96.94h1.09Z"/>
      <path class="cls-1" d="M574.1,389.53c-.96.29-2.04.66-3.23,1.11s-2.75,1.1-4.66,1.97c0,.29,0,.83,0,1.6s0,1.56,0,2.36c0,1.24.01,2.63.04,4.17s.04,2.45.04,2.74h-5.4c0-.35,0-1.23.03-2.64s.03-3.29.03-5.64c0-1.12,0-2.54-.02-4.25s-.02-3.52-.04-5.41h5.27l-.02,2.58.04.02c1.11-.69,2.31-1.34,3.59-1.94s2.27-1.01,2.99-1.22l1.37,4.57Z"/>
      <path class="cls-1" d="M593.87,394.52c0,1.36-.26,2.66-.77,3.89s-1.28,2.32-2.3,3.24c-.86.77-1.83,1.35-2.92,1.73s-2.28.57-3.57.57-2.44-.19-3.55-.57-2.1-.95-2.95-1.71c-.98-.88-1.74-1.95-2.28-3.2s-.8-2.58-.8-3.99.23-2.64.69-3.77,1.17-2.16,2.13-3.08c.87-.84,1.88-1.48,3.03-1.92s2.39-.65,3.72-.65,2.56.2,3.67.6,2.12,1.01,3.01,1.85c.97.93,1.7,1.97,2.18,3.14s.72,2.46.72,3.88ZM588.51,394.59c0-.83-.13-1.66-.38-2.48s-.66-1.51-1.22-2.06c-.33-.33-.72-.58-1.18-.75s-.93-.25-1.42-.25c-.59,0-1.09.09-1.52.27s-.84.48-1.24.91c-.47.48-.83,1.11-1.08,1.9s-.38,1.57-.38,2.36c0,.91.13,1.75.38,2.52s.68,1.43,1.27,2c.33.33.71.57,1.16.73s.91.24,1.41.24,1.01-.09,1.49-.28.88-.46,1.22-.81c.48-.52.85-1.15,1.11-1.92s.39-1.55.39-2.37Z"/>
      <path class="cls-1" d="M609.8,399.74l-.51,3.85c-.16.01-.44.02-.83.04s-.89.02-1.51.02c-2.85,0-5-.54-6.44-1.63s-2.17-2.7-2.17-4.84c0-1.37,0-2.64.02-3.81s.02-2.5.02-4.02h-2.92v-3.83h3.06v-4.69h5.19v4.69h6.03v3.83h-6.03c0,.26,0,.77-.02,1.54s-.02,1.4-.02,1.89c0,.39,0,.86,0,1.42s0,1.14,0,1.75c0,1.28.36,2.23,1.07,2.86s2.03.94,3.96.94h1.09Z"/>
    </g>
  </g>
</svg>