<?xml version="1.0" encoding="UTF-8"?>
<svg id="Layer_1" data-name="Layer 1" xmlns="http://www.w3.org/2000/svg" viewBox="0 0 2566.46 1059.54">
  <defs>
    <style>
      .cls-1 {
        fill: none;
        stroke: #2d2d2d;
        stroke-miterlimit: 10;
        stroke-width: 18px;
      }
    </style>
  </defs>
  <path class="cls-1" d="M4.83,290.47c152.64,97.22,261.74,260.24,293.41,438.42,10.7,60.23,13.05,122.24,31.37,180.6,18.32,58.36,56.81,114.93,114.84,134.27,66.67,22.23,143.19-12.63,184.1-69.78,40.91-57.14,51.17-131.39,45.28-201.42-7.88-93.56-41.8-182.59-70.07-272.13-28.26-89.53-51.3-183.93-36.59-276.66,14.71-92.73,75.44-183.66,166.04-208.28,97.65-26.54,203.01,31.39,260.55,114.64,57.53,83.25,76.74,186.58,89.19,287,12.46,100.42,20.01,203.29,58.68,296.8,70.73,171.01,278.47,281.47,415.37,109.52,53.88-67.68,79.76-152.73,118.02-230.32,38.25-77.58,97.08-153.89,181.35-173.41,86.59-20.06,174.17,25.07,248.03,74.52,179.15,119.95,334.54,275.25,454.58,454.33"/>
</svg>