<?xml version="1.0" encoding="UTF-8"?>
<svg id="Layer_2" data-name="Layer 2" xmlns="http://www.w3.org/2000/svg" viewBox="0 0 451.02 136.13">
  <defs>
    <style>
      .cls-1 {
        fill: none;
        stroke: #fff;
        stroke-miterlimit: 10;
      }

      .cls-2 {
        fill: #fff;
      }
    </style>
  </defs>
  <g id="last">
    <path class="cls-1" d="M450.13,109.4h-17.42c-.21,0-.39-.17-.39-.39v-58.72l-3.96-5.05c-.05-.07-.09-.15-.09-.23v-4.9h-5.28c-.21,0-.39-.17-.39-.39v-4.4h-15.82v4.4c0,.21-.17.39-.39.39h-5.28v4.99c0,.21-.17.39-.39.39h-2.43c-.21,0-.39-.17-.39-.39v-27.69h-32.41v44.13c0,.13-.06.26-.18.33s-.26.08-.38.02l-17.36-8.26-12.25,5.83c-.13.06-.27.05-.38-.02-.11-.07-.18-.2-.18-.33v-9.55l-23.51-14.14v44.34c0,.12-.06.22-.15.3-.09.08-.2.1-.32.08l-7.69-1.53c-.18-.04-.31-.19-.31-.38V8.54h-2.04c-.21,0-.39-.18-.39-.39V1.28h-18.24v6.88c0,.21-.17.39-.39.39h-2.04v71.31c0,.18-.13.34-.31.38l-7.69,1.52c-.11.02-.23,0-.32-.08-.09-.08-.14-.19-.14-.3v-18.52l-14.29-9.2-9.8,6.22c-.13.08-.27.08-.4.01-.13-.06-.2-.2-.2-.34V3.07h-32.01v83.01c0,.18-.13.33-.3.38l-4.45.95c-.11.02-.23,0-.33-.08-.09-.07-.14-.18-.14-.3v-51.69l-31.19,14.26v5.37c0,.18-.13.34-.3.38-.18.04-.36-.05-.44-.21l-7.65-16.04-4.33,3.02c-.12.08-.28.09-.4.03-.13-.06-.21-.2-.21-.34V3.07h-25.13v47.1c0,.22-.17.39-.39.39h-45.32c-.21,0-.39-.17-.39-.39v-17.44L61.19,3.55v31.39c0,.21-.17.39-.39.39h-10.54v4.4c0,.21-.18.39-.39.39h-4.47v4.99c0,.21-.17.39-.39.39h-4.46v4.3h.82c.21,0,.39.18.39.39v36.09c0,.18-.13.33-.29.38l-4.05,1.03c-.12.03-.24,0-.33-.07-.09-.08-.15-.19-.15-.31V24.09l-18.24,9.09v75.83c0,.21-.17.39-.39.39H.89c-.21,0-.39-.17-.39-.39s.17-.39.39-.39h17.04V32.94c0-.15.08-.28.22-.34l19.02-9.48c.12-.06.27-.05.38.02.11.07.19.2.19.33v63.33l3.27-.84v-35.4h-.83c-.21,0-.39-.17-.39-.39v-5.07c0-.22.17-.39.39-.39h4.47v-4.99c0-.21.18-.39.39-.39h4.47v-4.39c0-.21.17-.39.39-.39h10.54V2.68c0-.16.09-.29.23-.36.14-.06.3-.03.41.07l33.19,29.87c.08.07.13.18.13.29v17.23h44.55V2.68c0-.21.18-.39.39-.39h25.9c.21,0,.39.18.39.39v38.35l4.09-2.85c.09-.07.21-.09.32-.06.11.03.2.1.24.21l7.11,14.91v-3.91c0-.15.08-.29.22-.35l31.97-14.6c.12-.06.27-.05.38.03.11.07.18.19.18.32v51.82l3.68-.78V2.68c0-.21.17-.39.39-.39h32.78c.22,0,.39.18.39.39v56.17l9.42-5.98c.13-.08.29-.08.42,0l14.67,9.45c.11.07.18.19.18.32v18.26l6.92-1.37V8.15c0-.21.17-.39.39-.39h2.04V.89c0-.21.17-.39.39-.39h19.02c.21,0,.39.18.39.39v6.88h2.04c.21,0,.39.18.39.39v69.75l6.92,1.38v-44.56c0-.14.07-.27.2-.33.12-.07.27-.07.39,0l24.29,14.6c.11.07.19.2.19.33v9.16l11.86-5.64c.1-.05.22-.05.33,0l16.97,8.07V17.02c0-.21.17-.39.39-.39h33.18c.21,0,.39.18.39.39v27.69h1.65v-4.99c0-.21.18-.39.39-.39h5.28v-4.39c0-.21.17-.39.39-.39h16.59c.21,0,.39.17.39.39v4.39h5.28c.21,0,.39.18.39.39v5.15l3.96,5.05c.05.07.08.16.08.24v58.47h17.04c.21,0,.39.17.39.39s-.17.39-.39.39"/>
    <g>
      <path class="cls-2" d="M59.47,136.13c-3.79,0-7.43-.51-10.9-1.54-3.48-1.03-6.57-2.61-9.28-4.74-2.71-2.13-4.86-4.81-6.44-8.02-1.58-3.21-2.37-7-2.37-11.38,0-5.06.91-9.39,2.73-13,1.82-3.61,4.23-6.56,7.23-8.85s6.29-3.98,9.88-5.06c3.58-1.08,7.11-1.62,10.59-1.62,1.63,0,3.34.13,5.14.4,1.79.26,3.45.58,4.98.95,1.53.37,2.71.71,3.56,1.03l-.79,5.37c-2.84-1.21-5.65-2.26-8.41-3.16-2.76-.89-5.86-1.34-9.28-1.34-5.58,1.26-9.85,4.02-12.8,8.25-2.95,4.24-4.42,9.49-4.42,15.76,0,5.27.96,9.71,2.88,13.31,1.92,3.61,4.54,6.32,7.86,8.14,3.32,1.82,7.11,2.73,11.38,2.73,2.79,0,5.56-.36,8.29-1.07,2.74-.71,4.92-1.78,6.56-3.2v4.34c-1.58.63-3.35,1.15-5.29,1.54-1.95.39-3.88.68-5.81.87-1.92.18-3.67.28-5.25.28Z"/>
      <path class="cls-2" d="M78.66,135.18l23.46-53.56h1.19l23.46,53.56h-8.61l-5.92-14.22h-23.46l-5.85,14.22h-4.27ZM89.96,117.96h21.01l-10.43-25.6-10.59,25.6Z"/>
      <path class="cls-2" d="M147.94,136.13c-3.11,0-6.04-.37-8.81-1.11-2.77-.74-4.91-1.39-6.44-1.97v-3.71c.89.42,2.11.96,3.63,1.62,1.53.66,3.21,1.22,5.06,1.7,1.84.47,3.63.71,5.37.71,3.48,0,6.28-.91,8.41-2.73,2.13-1.82,3.2-4.38,3.2-7.7,0-2.05-.61-3.82-1.82-5.29-1.21-1.47-2.78-2.82-4.7-4.03-1.92-1.21-3.96-2.38-6.12-3.51-2.16-1.13-4.2-2.37-6.12-3.71-1.92-1.34-3.49-2.92-4.7-4.74-1.21-1.82-1.82-3.96-1.82-6.44,0-2.05.55-4.09,1.66-6.12,1.11-2.03,2.87-3.73,5.29-5.1,2.42-1.37,5.61-2.05,9.56-2.05,2.16,0,4.5.26,7.03.79,2.53.53,4.71,1.08,6.56,1.66l-.79,5.37c-3.05-1.32-6.08-2.41-9.08-3.28-3-.87-6.06-1.3-9.16-1.3-1.53.74-2.59,1.7-3.2,2.88-.61,1.18-.91,2.49-.91,3.91,0,2.11.63,3.96,1.9,5.57,1.26,1.61,2.91,3.08,4.94,4.42,2.03,1.34,4.16,2.65,6.4,3.91,2.24,1.26,4.37,2.63,6.4,4.11,2.03,1.48,3.67,3.13,4.94,4.98,1.26,1.84,1.9,4,1.9,6.48,0,2.74-.69,5.23-2.05,7.47-1.37,2.24-3.42,4-6.16,5.29-2.74,1.29-6.19,1.94-10.35,1.94Z"/>
      <path class="cls-2" d="M171.64,135.18l23.46-53.56h1.19l23.46,53.56h-8.61l-5.92-14.22h-23.46l-5.85,14.22h-4.27ZM182.94,117.96h21.01l-10.43-25.6-10.59,25.6Z"/>
      <path class="cls-2" d="M227.34,135.18v-52.3h31.68l-.79,5.29-14.69-2.45c-1.53,0-2.95.12-4.27.36-1.32.24-2.74.57-4.27.99v19.2h17.54v3h-17.54v23.07l24.49-2.45-.79,5.29h-31.36Z"/>
      <path class="cls-2" d="M271.42,135.18v-52.3h14.93c3.53,0,7.08.49,10.67,1.46,3.58.98,6.87,2.56,9.88,4.74,3,2.19,5.41,5.03,7.23,8.53,1.82,3.5,2.73,7.78,2.73,12.84,0,4.37-.79,8.12-2.37,11.26-1.58,3.13-3.73,5.69-6.44,7.66-2.71,1.98-5.81,3.44-9.28,4.38-3.48.95-7.11,1.42-10.9,1.42h-16.43ZM286.27,132.49c4.27,0,8.07-.84,11.42-2.53,3.34-1.68,5.98-4.25,7.9-7.7,1.92-3.45,2.88-7.81,2.88-13.08,0-4.05-.75-7.69-2.25-10.9-1.5-3.21-3.55-5.9-6.16-8.06-2.61-2.16-5.57-3.66-8.89-4.5-1.84,0-3.94.16-6.28.47-2.34.32-4.25.71-5.73,1.19v44.4c.74.21,1.79.38,3.16.51,1.37.13,2.69.2,3.95.2Z"/>
      <path class="cls-2" d="M327.04,135.18v-52.3h7.27v52.3h-7.27Z"/>
      <path class="cls-2" d="M348.21,135.18v-52.3h7.74v48.03c1.37.37,2.75.7,4.15.99,1.4.29,2.59.43,3.59.43l14.3-2.45-.95,5.29h-28.83Z"/>
      <path class="cls-2" d="M386.36,135.18v-52.3h31.68l-.79,5.29-14.69-2.45c-1.53,0-2.95.12-4.27.36-1.32.24-2.74.57-4.27.99v19.2h17.54v3h-17.54v23.07l24.49-2.45-.79,5.29h-31.36Z"/>
    </g>
  </g>
</svg>