<?xml version="1.0" encoding="UTF-8"?>
<svg id="Layer_2" data-name="Layer 2" xmlns="http://www.w3.org/2000/svg" viewBox="0 0 451.02 159.83">
  <defs>
    <style>
      .cls-1 {
        fill: #cd8e40;
        font-family: Belleza-Regular, Belleza;
        font-size: 79px;
        letter-spacing: 0em;
      }

      .cls-2 {
        fill: none;
        stroke: #cd8e40;
        stroke-miterlimit: 10;
      }
    </style>
  </defs>
  <g id="Light">
    <path class="cls-2" d="M450.13,109.4h-17.42c-.21,0-.39-.17-.39-.39v-58.72l-3.96-5.05c-.05-.07-.09-.15-.09-.23v-4.9h-5.28c-.21,0-.39-.17-.39-.39v-4.4h-15.82v4.4c0,.21-.17.39-.39.39h-5.28v4.99c0,.21-.17.39-.39.39h-2.43c-.21,0-.39-.17-.39-.39v-27.69h-32.41v44.13c0,.13-.06.26-.18.33s-.26.08-.38.02l-17.36-8.26-12.25,5.83c-.13.06-.27.05-.38-.02-.11-.07-.18-.2-.18-.33v-9.55l-23.51-14.14v44.34c0,.12-.06.22-.15.3-.09.08-.2.1-.32.08l-7.69-1.53c-.18-.04-.31-.19-.31-.38V8.54h-2.04c-.21,0-.39-.18-.39-.39V1.28h-18.24v6.88c0,.21-.17.39-.39.39h-2.04v71.31c0,.18-.13.34-.31.38l-7.69,1.52c-.11.02-.23,0-.32-.08-.09-.08-.14-.19-.14-.3v-18.52l-14.29-9.2-9.8,6.22c-.13.08-.27.08-.4.01-.13-.06-.2-.2-.2-.34V3.07h-32.01v83.01c0,.18-.13.33-.3.38l-4.45.95c-.11.02-.23,0-.33-.08-.09-.07-.14-.18-.14-.3v-51.69l-31.19,14.26v5.37c0,.18-.13.34-.3.38-.18.04-.36-.05-.44-.21l-7.65-16.04-4.33,3.02c-.12.08-.28.09-.4.03-.13-.06-.21-.2-.21-.34V3.07h-25.13v47.1c0,.22-.17.39-.39.39h-45.32c-.21,0-.39-.17-.39-.39v-17.44L61.19,3.55v31.39c0,.21-.17.39-.39.39h-10.54v4.4c0,.21-.18.39-.39.39h-4.47v4.99c0,.21-.17.39-.39.39h-4.46v4.3h.82c.21,0,.39.18.39.39v36.09c0,.18-.13.33-.29.38l-4.05,1.03c-.12.03-.24,0-.33-.07-.09-.08-.15-.19-.15-.31V24.09l-18.24,9.09v75.83c0,.21-.17.39-.39.39H.89c-.21,0-.39-.17-.39-.39s.17-.39.39-.39h17.04V32.94c0-.15.08-.28.22-.34l19.02-9.48c.12-.06.27-.05.38.02.11.07.19.2.19.33v63.33l3.27-.84v-35.4h-.83c-.21,0-.39-.17-.39-.39v-5.07c0-.22.17-.39.39-.39h4.47v-4.99c0-.21.18-.39.39-.39h4.47v-4.39c0-.21.17-.39.39-.39h10.54V2.68c0-.16.09-.29.23-.36.14-.06.3-.03.41.07l33.19,29.87c.08.07.13.18.13.29v17.23h44.55V2.68c0-.21.18-.39.39-.39h25.9c.21,0,.39.18.39.39v38.35l4.09-2.85c.09-.07.21-.09.32-.06.11.03.2.1.24.21l7.11,14.91v-3.91c0-.15.08-.29.22-.35l31.97-14.6c.12-.06.27-.05.38.03.11.07.18.19.18.32v51.82l3.68-.78V2.68c0-.21.17-.39.39-.39h32.78c.22,0,.39.18.39.39v56.17l9.42-5.98c.13-.08.29-.08.42,0l14.67,9.45c.11.07.18.19.18.32v18.26l6.92-1.37V8.15c0-.21.17-.39.39-.39h2.04V.89c0-.21.17-.39.39-.39h19.02c.21,0,.39.18.39.39v6.88h2.04c.21,0,.39.18.39.39v69.75l6.92,1.38v-44.56c0-.14.07-.27.2-.33.12-.07.27-.07.39,0l24.29,14.6c.11.07.19.2.19.33v9.16l11.86-5.64c.1-.05.22-.05.33,0l16.97,8.07V17.02c0-.21.17-.39.39-.39h33.18c.21,0,.39.18.39.39v27.69h1.65v-4.99c0-.21.18-.39.39-.39h5.28v-4.39c0-.21.17-.39.39-.39h16.59c.21,0,.39.17.39.39v4.39h5.28c.21,0,.39.18.39.39v5.15l3.96,5.05c.05.07.08.16.08.24v58.47h17.04c.21,0,.39.17.39.39s-.17.39-.39.39"/>
    <text class="cls-1" transform="translate(28.26 135.18)"><tspan x="0" y="0">CASAEDILE</tspan></text>
  </g>
</svg>