<?xml version="1.0" encoding="UTF-8"?>
<svg id="Layer_2" data-name="Layer 2" xmlns="http://www.w3.org/2000/svg" viewBox="0 0 450.39 118.35">
  <defs>
    <style>
      .cls-1 {
        fill: #e4c199;
      }

      .cls-2 {
        fill: #cd8e40;
        font-family: Belleza-Regular, Belleza;
        font-size: 88.76px;
      }
    </style>
  </defs>
  <g id="Layer_2-2" data-name="Layer 2">
    <g>
      <path class="cls-1" d="M242.37,28.39h1.65V2.33c0-.46-.37-.83-.83-.83h-27.45c-.45,0-.82.37-.82.83v69.16l-2.08.44V29.15c0-.28-.15-.55-.37-.69-.24-.16-.55-.18-.8-.06l-15.74,7.19.66,1.51,14.6-6.67v39.89l.76,1.79h-.02s.68,1.55.68,1.55l3.32-.71c.38-.09.64-.42.64-.8V3.15h25.81v25.24Z"/>
      <path class="cls-1" d="M327.11,43.88l-2.13,1.01.27.47c.06.11.12.22.19.34l.35.63,1.67-.79,6.87,3.27v-1.83l-6.53-3.11c-.22-.09-.47-.09-.69,0Z"/>
      <path class="cls-1" d="M399.39,41.57l-3.21-4.09v-4.14c0-.46-.37-.83-.82-.83h-3.92v-3.18c0-.45-.37-.82-.82-.82h-13.89c-.46,0-.83.37-.83.82v3.18h-1.71v1.65h2.54c.45,0,.82-.37.82-.82v-3.18h12.25v3.18c0,.45.37.82.82.82h3.92v3.6c0,.18.06.35.18.5l3.21,4.1v38.37l1.65-.28v-38.37c0-.18-.06-.37-.18-.51Z"/>
      <path class="cls-1" d="M369.93,13.51h-27.79c-.45,0-.82.37-.82.82v14.06h1.65v-13.24h26.14v13.24h1.65v-14.06c0-.45-.37-.82-.83-.82Z"/>
      <path class="cls-1" d="M87.85,1.71c-.24-.21-.58-.27-.9-.14-.3.14-.48.43-.48.75v24.65h.49l1.16,2.65V4.17l26.14,23.53v14.38c0,.13.04.34.21.54l.66.77.21-.99c.14-.7.33-1.38.55-2.03l.03-13.03c0-.24-.1-.46-.27-.61L87.85,1.71Z"/>
      <path class="cls-1" d="M67.28,18.99l-15.91,7.94c-.29.13-.47.42-.47.74v1.8l.36.1c.19.05.36.11.53.16l.75.23v-1.79l14.28-7.12v38.41l1.65-3.77V19.73c0-.28-.14-.54-.39-.71-.25-.15-.56-.16-.8-.03Z"/>
      <path class="cls-1" d="M178.89,31.52c-.24-.06-.49-.02-.69.12l-2.64,1.84V2.33c0-.46-.37-.83-.82-.83h-21.69c-.46,0-.83.37-.83.83v27.57l1.65.5V3.15h20.04v31.92c0,.31.18.6.44.72.27.15.61.12.86-.05l3.14-2.19,2.61,5.48.87-1.99-2.41-5.06c-.1-.23-.3-.4-.53-.45Z"/>
      <path class="cls-1" d="M290.3,6.08h-1.21V.82c0-.45-.37-.82-.82-.82h-15.93c-.45,0-.82.37-.82.82v5.26h-1.21c-.45,0-.82.37-.82.83v59.36l-4.79.95v-14.68c0-.29-.14-.55-.38-.69l-12.29-7.92c-.28-.18-.62-.18-.89,0l-7.12,4.52v-9.7l-.95-.16h-.17s-.53.01-.53.01v11.34c0,.31.17.6.43.72.27.14.58.14.84-.03l7.94-5.04,11.46,7.38v15.23c0,.24.11.47.3.64.15.12.33.19.53.19.05,0,.11,0,.16-.01l6.44-1.27c.38-.08.66-.42.66-.81V7.73h1.21c.45,0,.82-.37.82-.82V1.65h14.28v5.26c0,.45.37.82.83.82h1.21v20.66h1.65V6.91c0-.46-.37-.83-.82-.83Z"/>
      <polyline class="cls-1" points="52.55 43.93 50.9 43.23 50.9 81.39 52.55 79.95"/>
      <path class="cls-1" d="M77.33,29.34v3.18h-3.25c-.45,0-.82.37-.82.83v3.68h-3.24c-.45,0-.82.37-.82.82v4.25c0,.46.37.83.82.83h.19v8.82l1.61-3.67.04-5.97c0-.45-.37-.82-.83-.82h-.19v-2.6h3.24c.46,0,.83-.37.83-.82v-3.68h3l.28-.65h.14v-.31l.61-1.39.04-1.65h.68l.72-1.65h-2.23c-.45,0-.82.37-.82.82Z"/>
    </g>
    <text class="cls-2" transform="translate(0 90.66)"><tspan x="0" y="0">CASAEDILE</tspan></text>
  </g>
</svg>